<svg xmlns="http://www.w3.org/2000/svg" xmlns:xlink="http://www.w3.org/1999/xlink" width="500" zoomAndPan="magnify" viewBox="0 0 375 374.999991" height="500" preserveAspectRatio="xMidYMid meet" version="1.0"><defs><g/><clipPath id="f52fa789b5"><path d="M 117 98 L 152 98 L 152 223.28125 L 117 223.28125 Z M 117 98 " clip-rule="nonzero"/></clipPath><clipPath id="55e7e36ef3"><path d="M 230 98 L 265.003906 98 L 265.003906 223.28125 L 230 223.28125 Z M 230 98 " clip-rule="nonzero"/></clipPath><clipPath id="3e2c4a22cb"><path d="M 80.503906 130 L 118 130 L 118 189 L 80.503906 189 Z M 80.503906 130 " clip-rule="nonzero"/></clipPath></defs><rect x="-37.5" width="450" fill="#ffffff" y="-37.499999" height="449.999989" fill-opacity="1"/><rect x="-37.5" width="450" fill="#ffffff" y="-37.499999" height="449.999989" fill-opacity="1"/><rect x="-37.5" width="450" fill="#ffffff" y="-37.499999" height="449.999989" fill-opacity="1"/><path fill="#000000" d="M 164.796875 39.261719 C 163.78125 41.046875 162.910156 42.644531 162.839844 42.8125 C 162.765625 43.03125 163.152344 43.417969 163.855469 43.875 C 166.996094 45.832031 168.328125 47.863281 168.304688 50.617188 C 168.304688 53.007812 167.746094 54.507812 164.289062 61.632812 C 162.644531 65.015625 160.878906 68.980469 160.371094 70.453125 C 159.5 73.015625 159.476562 73.230469 159.453125 76.492188 C 159.453125 79.417969 159.527344 80.09375 160.007812 81.519531 C 160.734375 83.574219 162.015625 85.480469 163.976562 87.464844 C 165.621094 89.105469 168.980469 91.472656 169.269531 91.160156 C 169.367188 91.0625 170.335938 89.46875 171.398438 87.609375 C 173.042969 84.710938 173.285156 84.203125 172.945312 83.984375 C 170.140625 82.195312 168.230469 80.167969 167.769531 78.453125 C 167.433594 77.171875 167.625 74.921875 168.277344 72.964844 C 168.570312 72.121094 170.1875 68.542969 171.90625 65.015625 C 175.074219 58.46875 176.042969 55.933594 176.523438 52.863281 C 177.46875 46.800781 174.613281 41 168.859375 37.230469 C 167.84375 36.554688 166.925781 36.023438 166.804688 36.023438 C 166.707031 36.023438 165.789062 37.472656 164.796875 39.261719 Z M 164.796875 39.261719 " fill-opacity="1" fill-rule="nonzero"/><path fill="#000000" d="M 186.898438 39.550781 C 185.808594 41.484375 184.964844 43.078125 185.011719 43.101562 C 186.195312 43.804688 188.082031 45.253906 188.832031 46.097656 C 190.210938 47.570312 190.621094 48.609375 190.597656 50.640625 C 190.597656 53.007812 189.824219 55.136719 186.535156 61.753906 C 182.523438 69.921875 181.578125 72.773438 181.578125 76.785156 C 181.578125 80.914062 182.933594 84.007812 186.171875 87.269531 C 188.324219 89.46875 191.203125 91.5 191.589844 91.113281 C 191.710938 90.992188 192.652344 89.398438 193.691406 87.558594 C 195.3125 84.710938 195.53125 84.203125 195.214844 83.984375 C 193.667969 83.019531 191.734375 81.351562 191.082031 80.457031 C 188.90625 77.363281 189.4375 74.535156 193.910156 65.546875 C 198.117188 57.140625 198.84375 54.941406 198.867188 50.640625 C 198.867188 46.824219 198.023438 44.335938 195.675781 41.265625 C 194.296875 39.476562 189.96875 36.023438 189.097656 36.023438 C 188.976562 36.023438 187.988281 37.617188 186.898438 39.550781 Z M 186.898438 39.550781 " fill-opacity="1" fill-rule="nonzero"/><path fill="#000000" d="M 209.167969 39.550781 C 208.082031 41.484375 207.210938 43.101562 207.257812 43.125 C 207.308594 43.152344 207.765625 43.441406 208.296875 43.753906 C 209.726562 44.601562 211.78125 46.628906 212.359375 47.742188 C 212.746094 48.464844 212.867188 49.167969 212.867188 50.519531 C 212.894531 52.984375 212.144531 55.0625 208.925781 61.585938 C 204.914062 69.65625 204.113281 71.925781 203.898438 76.011719 C 203.679688 80.3125 204.890625 83.574219 207.984375 86.882812 C 209.433594 88.453125 213.59375 91.621094 213.8125 91.328125 C 213.910156 91.234375 217.125 85.507812 217.558594 84.683594 C 217.800781 84.203125 217.703125 84.082031 216.496094 83.285156 C 214.753906 82.125 213.402344 80.746094 212.722656 79.464844 C 212.3125 78.644531 212.191406 78.039062 212.191406 76.613281 C 212.214844 74.125 212.917969 72.167969 216.398438 65.136719 C 220.4375 56.996094 221.429688 53.78125 221.1875 49.578125 C 220.898438 44.601562 218.238281 40.421875 213.28125 37.132812 C 212.359375 36.53125 211.515625 36.023438 211.394531 36.023438 C 211.273438 36.023438 210.28125 37.617188 209.167969 39.550781 Z M 209.167969 39.550781 " fill-opacity="1" fill-rule="nonzero"/><g clip-path="url(#f52fa789b5)"><path fill="#000000" d="M 146.445312 98.84375 C 141.488281 99.691406 136.359375 102.492188 133.070312 106.1875 C 130.21875 109.402344 128.089844 113.800781 127.4375 117.933594 C 127.269531 118.898438 127.171875 124.867188 127.171875 133.515625 C 127.171875 149.003906 127.148438 149.222656 125.648438 151.734375 C 124.148438 154.222656 121.199219 156.15625 118.371094 156.496094 L 117.015625 156.664062 L 117.015625 164.976562 L 118.34375 165.121094 C 120.789062 165.363281 123.714844 167.101562 125.261719 169.226562 C 125.625 169.734375 126.203125 170.796875 126.496094 171.546875 C 127.050781 172.902344 127.050781 172.996094 127.171875 188.363281 C 127.339844 206.148438 127.269531 205.445312 129.734375 210.398438 C 133.023438 217.019531 138.683594 221.25 146.105469 222.675781 C 147.167969 222.867188 148.765625 223.035156 149.683594 223.035156 L 151.351562 223.035156 L 151.351562 214.820312 L 150.121094 214.820312 C 148.304688 214.820312 145.671875 214.167969 143.613281 213.203125 C 141.246094 212.066406 138.292969 209.167969 137.183594 206.847656 C 135.488281 203.367188 135.5625 204.214844 135.394531 187.15625 C 135.25 173.722656 135.175781 171.523438 134.835938 170.339844 C 133.871094 167.101562 132.296875 164.417969 130 162.125 L 128.648438 160.769531 L 129.855469 159.585938 C 131.984375 157.535156 133.964844 154.246094 134.8125 151.371094 C 135.199219 150.117188 135.25 148.253906 135.394531 134.484375 L 135.539062 119.019531 L 136.191406 117.085938 C 137.859375 112.085938 142.019531 108.339844 147.167969 107.203125 C 148.136719 106.988281 149.464844 106.816406 150.121094 106.816406 L 151.351562 106.816406 L 151.351562 98.601562 L 149.492188 98.625 C 148.449219 98.652344 147.074219 98.746094 146.445312 98.84375 Z M 146.445312 98.84375 " fill-opacity="1" fill-rule="nonzero"/></g><g clip-path="url(#55e7e36ef3)"><path fill="#000000" d="M 230.664062 102.6875 L 230.664062 106.816406 L 231.828125 106.816406 C 234.898438 106.839844 239.082031 108.460938 241.449219 110.539062 C 243.09375 111.988281 244.789062 114.523438 245.609375 116.722656 L 246.261719 118.535156 L 246.40625 134 C 246.550781 150.742188 246.503906 150.164062 247.929688 153.667969 C 248.65625 155.457031 250.566406 158.28125 252.042969 159.707031 L 253.128906 160.769531 L 251.605469 162.414062 C 248.96875 165.191406 247.230469 168.671875 246.648438 172.296875 C 246.480469 173.261719 246.382812 179.183594 246.382812 187.664062 C 246.382812 196.3125 246.285156 201.96875 246.117188 202.886719 C 245.683594 205.300781 243.964844 208.515625 242.078125 210.425781 C 239.492188 213.035156 235.382812 214.796875 231.828125 214.820312 L 230.664062 214.820312 L 230.664062 223.035156 L 232.214844 223.035156 C 234.21875 223.035156 237.242188 222.457031 239.636719 221.613281 C 245.441406 219.558594 250.664062 214.484375 253.058594 208.589844 C 254.484375 205.035156 254.4375 205.59375 254.605469 188.847656 C 254.773438 172.804688 254.773438 172.636719 255.8125 170.605469 C 257.386719 167.5625 261.109375 165.046875 264.082031 165.046875 L 265.003906 165.046875 L 265.003906 156.664062 L 263.671875 156.519531 C 261.617188 156.300781 259.199219 155.070312 257.675781 153.472656 C 256.273438 152.023438 255.886719 151.371094 255.183594 149.464844 C 254.773438 148.351562 254.726562 146.949219 254.605469 132.914062 C 254.460938 118.171875 254.4375 117.496094 253.929688 115.683594 C 251.242188 106.019531 242.925781 99.207031 233.15625 98.675781 L 230.664062 98.53125 Z M 230.664062 102.6875 " fill-opacity="1" fill-rule="nonzero"/></g><path fill="#000000" d="M 180.851562 112.277344 C 169.125 112.953125 157.15625 115.152344 150.867188 117.761719 C 133.265625 125.058594 148.328125 134.628906 180.492188 136.5625 C 186.316406 136.921875 200.390625 136.707031 205.519531 136.175781 C 217.074219 135.015625 225.683594 133.058594 231.367188 130.328125 C 239.082031 126.628906 239.054688 122.28125 231.320312 118.558594 C 225.683594 115.855469 217.125 113.921875 205.519531 112.738281 C 201.9375 112.351562 184.867188 112.0625 180.851562 112.277344 Z M 180.851562 112.277344 " fill-opacity="1" fill-rule="nonzero"/><g clip-path="url(#3e2c4a22cb)"><path fill="#000000" d="M 106.160156 130.761719 C 94.648438 132.089844 84.78125 140.71875 81.589844 152.242188 C 81.082031 154.078125 80.914062 155.285156 80.816406 158.1875 C 80.597656 164.007812 81.398438 167.875 83.765625 172.660156 C 87.199219 179.570312 92.929688 184.621094 100.332031 187.230469 C 103.644531 188.386719 106.28125 188.726562 111.984375 188.726562 L 117.015625 188.726562 L 117.015625 180.558594 L 111.648438 180.4375 C 105.359375 180.292969 104.273438 180.101562 100.695312 178.363281 C 89.789062 173.023438 85.703125 159.441406 91.867188 149.078125 C 93.101562 147 96.050781 143.832031 97.984375 142.527344 C 102.191406 139.679688 105.941406 138.734375 113.097656 138.710938 L 117.015625 138.710938 L 117.015625 130.496094 L 112.492188 130.519531 C 109.980469 130.542969 107.148438 130.640625 106.160156 130.761719 Z M 106.160156 130.761719 " fill-opacity="1" fill-rule="nonzero"/></g><g fill="#000000" fill-opacity="1"><g transform="translate(108.616133, 295.369697)"><g><path d="M 51.515625 -5.839844 L 44.957031 -5.839844 L 44.957031 -33.519531 L 51.355469 -33.519531 L 51.355469 -39.515625 L 38.957031 -39.515625 L 38.558594 -32.558594 C 35.679688 -37.675781 29.839844 -40.316406 23.917969 -40.316406 C 12.558594 -40.316406 3.519531 -32.558594 3.519531 -19.757812 C 3.519531 -6.800781 12.398438 0.800781 23.839844 0.800781 C 29.277344 0.800781 35.277344 -0.960938 38.398438 -6.398438 L 39.117188 0 L 51.515625 0 Z M 24.160156 -5.199219 C 16.238281 -5.199219 10 -10.71875 10 -19.519531 C 10 -28.238281 16.238281 -33.996094 24.078125 -33.996094 C 33.996094 -33.996094 39.039062 -26.957031 38.796875 -19.117188 C 38.558594 -11.757812 33.359375 -5.199219 24.160156 -5.199219 Z M 24.160156 -5.199219 "/></g></g></g><g fill="#000000" fill-opacity="1"><g transform="translate(163.170836, 295.369697)"><g><path d="M 1.28125 -39.515625 L 1.28125 -33.835938 L 6.960938 -33.835938 L 21.679688 0 L 28.878906 0 L 43.675781 -33.835938 L 49.277344 -33.835938 L 49.277344 -39.515625 L 31.359375 -39.515625 L 31.359375 -33.835938 L 36.558594 -33.835938 L 25.359375 -6.960938 L 14 -33.835938 L 19.199219 -33.835938 L 19.199219 -39.515625 Z M 1.28125 -39.515625 "/></g></g></g><g fill="#000000" fill-opacity="1"><g transform="translate(213.805915, 295.369697)"><g><path d="M 8.640625 -51.597656 C 8.640625 -45.835938 17.277344 -45.835938 17.277344 -51.515625 C 17.277344 -57.277344 8.640625 -57.277344 8.640625 -51.597656 Z M 16.160156 -39.515625 L 3.199219 -39.515625 L 3.199219 -33.679688 L 9.597656 -33.679688 L 9.597656 -5.917969 L 3.039062 -5.917969 L 3.039062 0 L 22.558594 0 L 22.558594 -5.917969 L 16.160156 -5.917969 Z M 16.160156 -39.515625 "/></g></g></g><g fill="#000000" fill-opacity="1"><g transform="translate(238.683503, 295.369697)"><g><path d="M 15.277344 -51.035156 L 8.71875 -50.316406 L 8.71875 -39.515625 L 0.800781 -39.515625 L 0.800781 -33.917969 L 8.71875 -33.917969 L 8.71875 -12.71875 C 8.71875 -4 12.71875 0.960938 21.199219 0.800781 C 23.839844 0.71875 26.238281 0.078125 28.878906 -1.121094 L 26.957031 -6.558594 C 25.199219 -5.679688 23.199219 -5.121094 21.4375 -5.121094 C 16.71875 -5.121094 15.199219 -8.078125 15.199219 -12.71875 L 15.199219 -33.917969 L 27.519531 -33.917969 L 27.519531 -39.515625 L 15.277344 -39.515625 Z M 15.277344 -51.035156 "/></g></g></g><g fill="#000000" fill-opacity="1"><g transform="translate(83.296604, 330.020134)"><g><path d="M 1.125 -5.796875 C 1.125 -6.734375 1.300781 -7.601562 1.65625 -8.40625 C 2.007812 -9.21875 2.488281 -9.914062 3.09375 -10.5 C 3.695312 -11.09375 4.410156 -11.554688 5.234375 -11.890625 C 6.054688 -12.234375 6.941406 -12.40625 7.890625 -12.40625 C 8.140625 -12.40625 8.46875 -12.367188 8.875 -12.296875 C 9.28125 -12.234375 9.679688 -12.125 10.078125 -11.96875 C 10.472656 -11.8125 10.8125 -11.585938 11.09375 -11.296875 C 11.382812 -11.003906 11.53125 -10.632812 11.53125 -10.1875 C 11.53125 -9.894531 11.441406 -9.625 11.265625 -9.375 C 11.085938 -9.132812 10.796875 -9.015625 10.390625 -9.015625 C 10.109375 -9.015625 9.863281 -9.128906 9.65625 -9.359375 C 9.457031 -9.597656 9.359375 -9.90625 9.359375 -10.28125 C 9.359375 -10.425781 9.367188 -10.582031 9.390625 -10.75 C 9.421875 -10.914062 9.4375 -11.007812 9.4375 -11.03125 C 9.4375 -11.144531 9.382812 -11.25 9.28125 -11.34375 C 9.175781 -11.4375 9.050781 -11.507812 8.90625 -11.5625 C 8.757812 -11.613281 8.59375 -11.660156 8.40625 -11.703125 C 8.226562 -11.742188 8.054688 -11.765625 7.890625 -11.765625 C 7.242188 -11.765625 6.695312 -11.59375 6.25 -11.25 C 5.8125 -10.914062 5.457031 -10.476562 5.1875 -9.9375 C 4.914062 -9.394531 4.722656 -8.78125 4.609375 -8.09375 C 4.503906 -7.40625 4.453125 -6.703125 4.453125 -5.984375 C 4.453125 -4.234375 4.765625 -2.882812 5.390625 -1.9375 C 6.015625 -1 6.859375 -0.53125 7.921875 -0.53125 C 8.367188 -0.53125 8.785156 -0.582031 9.171875 -0.6875 C 9.554688 -0.789062 9.898438 -0.925781 10.203125 -1.09375 C 10.515625 -1.257812 10.78125 -1.441406 11 -1.640625 C 11.226562 -1.835938 11.425781 -2.03125 11.59375 -2.21875 L 11.90625 -1.9375 C 11.300781 -1.144531 10.566406 -0.566406 9.703125 -0.203125 C 8.847656 0.160156 8.003906 0.34375 7.171875 0.34375 C 6.347656 0.34375 5.570312 0.207031 4.84375 -0.0625 C 4.113281 -0.332031 3.472656 -0.726562 2.921875 -1.25 C 2.367188 -1.78125 1.929688 -2.421875 1.609375 -3.171875 C 1.285156 -3.929688 1.125 -4.804688 1.125 -5.796875 Z M 1.125 -5.796875 "/></g></g></g><g fill="#000000" fill-opacity="1"><g transform="translate(95.754905, 330.020134)"><g><path d="M 7.8125 -11.78125 C 7.226562 -11.78125 6.726562 -11.628906 6.3125 -11.328125 C 5.894531 -11.035156 5.550781 -10.628906 5.28125 -10.109375 C 5.007812 -9.585938 4.804688 -8.972656 4.671875 -8.265625 C 4.546875 -7.566406 4.484375 -6.828125 4.484375 -6.046875 C 4.484375 -5.265625 4.546875 -4.519531 4.671875 -3.8125 C 4.804688 -3.113281 5.007812 -2.503906 5.28125 -1.984375 C 5.550781 -1.460938 5.894531 -1.046875 6.3125 -0.734375 C 6.726562 -0.429688 7.226562 -0.28125 7.8125 -0.28125 C 8.375 -0.28125 8.851562 -0.429688 9.25 -0.734375 C 9.65625 -1.046875 9.992188 -1.460938 10.265625 -1.984375 C 10.535156 -2.503906 10.726562 -3.117188 10.84375 -3.828125 C 10.96875 -4.546875 11.03125 -5.296875 11.03125 -6.078125 C 11.03125 -6.859375 10.96875 -7.59375 10.84375 -8.28125 C 10.726562 -8.976562 10.535156 -9.585938 10.265625 -10.109375 C 9.992188 -10.628906 9.65625 -11.035156 9.25 -11.328125 C 8.851562 -11.628906 8.375 -11.78125 7.8125 -11.78125 Z M 14.390625 -6.078125 C 14.390625 -5.140625 14.222656 -4.28125 13.890625 -3.5 C 13.554688 -2.71875 13.085938 -2.039062 12.484375 -1.46875 C 11.890625 -0.894531 11.191406 -0.445312 10.390625 -0.125 C 9.585938 0.195312 8.726562 0.359375 7.8125 0.359375 C 6.875 0.359375 6 0.195312 5.1875 -0.125 C 4.375 -0.445312 3.671875 -0.894531 3.078125 -1.46875 C 2.484375 -2.039062 2.007812 -2.71875 1.65625 -3.5 C 1.300781 -4.28125 1.125 -5.128906 1.125 -6.046875 C 1.125 -7.015625 1.300781 -7.890625 1.65625 -8.671875 C 2.007812 -9.460938 2.488281 -10.132812 3.09375 -10.6875 C 3.695312 -11.25 4.40625 -11.679688 5.21875 -11.984375 C 6.03125 -12.285156 6.894531 -12.4375 7.8125 -12.4375 C 8.6875 -12.4375 9.519531 -12.285156 10.3125 -11.984375 C 11.113281 -11.679688 11.816406 -11.25 12.421875 -10.6875 C 13.023438 -10.132812 13.503906 -9.460938 13.859375 -8.671875 C 14.210938 -7.890625 14.390625 -7.023438 14.390625 -6.078125 Z M 14.390625 -6.078125 "/></g></g></g><g fill="#000000" fill-opacity="1"><g transform="translate(111.264784, 330.020134)"><g><path d="M 5.796875 -2.265625 C 5.796875 -1.859375 5.875 -1.535156 6.03125 -1.296875 C 6.1875 -1.066406 6.378906 -0.890625 6.609375 -0.765625 C 6.847656 -0.648438 7.113281 -0.578125 7.40625 -0.546875 C 7.695312 -0.515625 7.984375 -0.5 8.265625 -0.5 L 8.265625 0 C 7.660156 0 7.164062 -0.00390625 6.78125 -0.015625 C 6.40625 -0.0234375 6.082031 -0.0351562 5.8125 -0.046875 C 5.539062 -0.0546875 5.289062 -0.0625 5.0625 -0.0625 C 4.84375 -0.0703125 4.613281 -0.078125 4.375 -0.078125 C 4.101562 -0.078125 3.851562 -0.0703125 3.625 -0.0625 C 3.40625 -0.0625 3.164062 -0.0546875 2.90625 -0.046875 C 2.644531 -0.0351562 2.351562 -0.0234375 2.03125 -0.015625 C 1.71875 -0.00390625 1.335938 0 0.890625 0 L 0.890625 -0.5 C 1.171875 -0.5 1.421875 -0.515625 1.640625 -0.546875 C 1.867188 -0.578125 2.066406 -0.644531 2.234375 -0.75 C 2.398438 -0.863281 2.53125 -1.023438 2.625 -1.234375 C 2.71875 -1.441406 2.765625 -1.726562 2.765625 -2.09375 L 2.765625 -11.484375 L 0.953125 -11.484375 L 0.953125 -12.125 L 2.765625 -12.125 L 2.765625 -13.390625 C 2.765625 -13.648438 2.785156 -13.972656 2.828125 -14.359375 C 2.867188 -14.753906 2.945312 -15.164062 3.0625 -15.59375 C 3.1875 -16.019531 3.367188 -16.445312 3.609375 -16.875 C 3.847656 -17.3125 4.171875 -17.695312 4.578125 -18.03125 C 4.984375 -18.363281 5.476562 -18.640625 6.0625 -18.859375 C 6.644531 -19.078125 7.359375 -19.1875 8.203125 -19.1875 C 8.484375 -19.1875 8.835938 -19.15625 9.265625 -19.09375 C 9.691406 -19.039062 10.101562 -18.929688 10.5 -18.765625 C 10.90625 -18.609375 11.253906 -18.390625 11.546875 -18.109375 C 11.835938 -17.835938 11.984375 -17.476562 11.984375 -17.03125 C 11.984375 -16.78125 11.898438 -16.550781 11.734375 -16.34375 C 11.566406 -16.144531 11.320312 -16.046875 11 -16.046875 C 10.757812 -16.046875 10.539062 -16.113281 10.34375 -16.25 C 10.144531 -16.394531 10 -16.597656 9.90625 -16.859375 C 9.8125 -17.117188 9.769531 -17.320312 9.78125 -17.46875 C 9.789062 -17.625 9.785156 -17.71875 9.765625 -17.75 C 9.546875 -18.289062 9.023438 -18.5625 8.203125 -18.5625 C 7.640625 -18.5625 7.195312 -18.421875 6.875 -18.140625 C 6.550781 -17.859375 6.304688 -17.507812 6.140625 -17.09375 C 5.984375 -16.6875 5.882812 -16.253906 5.84375 -15.796875 C 5.8125 -15.347656 5.796875 -14.945312 5.796875 -14.59375 L 5.796875 -12.125 L 8.6875 -12.125 L 8.6875 -11.484375 L 5.796875 -11.484375 Z M 5.796875 -2.265625 "/></g></g></g><g fill="#000000" fill-opacity="1"><g transform="translate(121.063444, 330.020134)"><g><path d="M 5.796875 -2.265625 C 5.796875 -1.859375 5.875 -1.535156 6.03125 -1.296875 C 6.1875 -1.066406 6.378906 -0.890625 6.609375 -0.765625 C 6.847656 -0.648438 7.113281 -0.578125 7.40625 -0.546875 C 7.695312 -0.515625 7.984375 -0.5 8.265625 -0.5 L 8.265625 0 C 7.660156 0 7.164062 -0.00390625 6.78125 -0.015625 C 6.40625 -0.0234375 6.082031 -0.0351562 5.8125 -0.046875 C 5.539062 -0.0546875 5.289062 -0.0625 5.0625 -0.0625 C 4.84375 -0.0703125 4.613281 -0.078125 4.375 -0.078125 C 4.101562 -0.078125 3.851562 -0.0703125 3.625 -0.0625 C 3.40625 -0.0625 3.164062 -0.0546875 2.90625 -0.046875 C 2.644531 -0.0351562 2.351562 -0.0234375 2.03125 -0.015625 C 1.71875 -0.00390625 1.335938 0 0.890625 0 L 0.890625 -0.5 C 1.171875 -0.5 1.421875 -0.515625 1.640625 -0.546875 C 1.867188 -0.578125 2.066406 -0.644531 2.234375 -0.75 C 2.398438 -0.863281 2.53125 -1.023438 2.625 -1.234375 C 2.71875 -1.441406 2.765625 -1.726562 2.765625 -2.09375 L 2.765625 -11.484375 L 0.953125 -11.484375 L 0.953125 -12.125 L 2.765625 -12.125 L 2.765625 -13.390625 C 2.765625 -13.648438 2.785156 -13.972656 2.828125 -14.359375 C 2.867188 -14.753906 2.945312 -15.164062 3.0625 -15.59375 C 3.1875 -16.019531 3.367188 -16.445312 3.609375 -16.875 C 3.847656 -17.3125 4.171875 -17.695312 4.578125 -18.03125 C 4.984375 -18.363281 5.476562 -18.640625 6.0625 -18.859375 C 6.644531 -19.078125 7.359375 -19.1875 8.203125 -19.1875 C 8.484375 -19.1875 8.835938 -19.15625 9.265625 -19.09375 C 9.691406 -19.039062 10.101562 -18.929688 10.5 -18.765625 C 10.90625 -18.609375 11.253906 -18.390625 11.546875 -18.109375 C 11.835938 -17.835938 11.984375 -17.476562 11.984375 -17.03125 C 11.984375 -16.78125 11.898438 -16.550781 11.734375 -16.34375 C 11.566406 -16.144531 11.320312 -16.046875 11 -16.046875 C 10.757812 -16.046875 10.539062 -16.113281 10.34375 -16.25 C 10.144531 -16.394531 10 -16.597656 9.90625 -16.859375 C 9.8125 -17.117188 9.769531 -17.320312 9.78125 -17.46875 C 9.789062 -17.625 9.785156 -17.71875 9.765625 -17.75 C 9.546875 -18.289062 9.023438 -18.5625 8.203125 -18.5625 C 7.640625 -18.5625 7.195312 -18.421875 6.875 -18.140625 C 6.550781 -17.859375 6.304688 -17.507812 6.140625 -17.09375 C 5.984375 -16.6875 5.882812 -16.253906 5.84375 -15.796875 C 5.8125 -15.347656 5.796875 -14.945312 5.796875 -14.59375 L 5.796875 -12.125 L 8.6875 -12.125 L 8.6875 -11.484375 L 5.796875 -11.484375 Z M 5.796875 -2.265625 "/></g></g></g><g fill="#000000" fill-opacity="1"><g transform="translate(130.862103, 330.020134)"><g><path d="M 12.234375 -2.046875 C 12.015625 -1.765625 11.75 -1.484375 11.4375 -1.203125 C 11.125 -0.921875 10.769531 -0.664062 10.375 -0.4375 C 9.988281 -0.21875 9.546875 -0.0351562 9.046875 0.109375 C 8.554688 0.265625 8.015625 0.34375 7.421875 0.34375 C 6.640625 0.34375 5.875 0.207031 5.125 -0.0625 C 4.375 -0.332031 3.703125 -0.726562 3.109375 -1.25 C 2.515625 -1.78125 2.035156 -2.429688 1.671875 -3.203125 C 1.304688 -3.984375 1.125 -4.867188 1.125 -5.859375 C 1.125 -6.753906 1.289062 -7.59375 1.625 -8.375 C 1.957031 -9.15625 2.410156 -9.84375 2.984375 -10.4375 C 3.566406 -11.039062 4.25 -11.515625 5.03125 -11.859375 C 5.820312 -12.203125 6.664062 -12.375 7.5625 -12.375 C 8.21875 -12.375 8.851562 -12.265625 9.46875 -12.046875 C 10.082031 -11.835938 10.625 -11.53125 11.09375 -11.125 C 11.570312 -10.726562 11.960938 -10.25 12.265625 -9.6875 C 12.578125 -9.125 12.765625 -8.507812 12.828125 -7.84375 C 12.828125 -7.726562 12.820312 -7.625 12.8125 -7.53125 C 12.800781 -7.4375 12.75 -7.390625 12.65625 -7.390625 L 4.453125 -7.390625 C 4.410156 -7.078125 4.382812 -6.8125 4.375 -6.59375 C 4.375 -6.375 4.375 -6.132812 4.375 -5.875 C 4.375 -5.09375 4.460938 -4.367188 4.640625 -3.703125 C 4.816406 -3.046875 5.0625 -2.476562 5.375 -2 C 5.695312 -1.519531 6.085938 -1.148438 6.546875 -0.890625 C 7.015625 -0.628906 7.539062 -0.5 8.125 -0.5 C 8.625 -0.5 9.066406 -0.5625 9.453125 -0.6875 C 9.847656 -0.820312 10.203125 -0.976562 10.515625 -1.15625 C 10.835938 -1.332031 11.109375 -1.53125 11.328125 -1.75 C 11.554688 -1.96875 11.753906 -2.160156 11.921875 -2.328125 Z M 9.1875 -8.0625 C 9.476562 -8.0625 9.625 -8.210938 9.625 -8.515625 C 9.625 -8.867188 9.59375 -9.234375 9.53125 -9.609375 C 9.46875 -9.992188 9.351562 -10.34375 9.1875 -10.65625 C 9.019531 -10.976562 8.800781 -11.242188 8.53125 -11.453125 C 8.257812 -11.660156 7.914062 -11.765625 7.5 -11.765625 C 6.976562 -11.765625 6.546875 -11.640625 6.203125 -11.390625 C 5.859375 -11.148438 5.570312 -10.847656 5.34375 -10.484375 C 5.125 -10.117188 4.953125 -9.722656 4.828125 -9.296875 C 4.703125 -8.867188 4.601562 -8.457031 4.53125 -8.0625 Z M 9.1875 -8.0625 "/></g></g></g><g fill="#000000" fill-opacity="1"><g transform="translate(144.720211, 330.020134)"><g><path d="M 12.234375 -2.046875 C 12.015625 -1.765625 11.75 -1.484375 11.4375 -1.203125 C 11.125 -0.921875 10.769531 -0.664062 10.375 -0.4375 C 9.988281 -0.21875 9.546875 -0.0351562 9.046875 0.109375 C 8.554688 0.265625 8.015625 0.34375 7.421875 0.34375 C 6.640625 0.34375 5.875 0.207031 5.125 -0.0625 C 4.375 -0.332031 3.703125 -0.726562 3.109375 -1.25 C 2.515625 -1.78125 2.035156 -2.429688 1.671875 -3.203125 C 1.304688 -3.984375 1.125 -4.867188 1.125 -5.859375 C 1.125 -6.753906 1.289062 -7.59375 1.625 -8.375 C 1.957031 -9.15625 2.410156 -9.84375 2.984375 -10.4375 C 3.566406 -11.039062 4.25 -11.515625 5.03125 -11.859375 C 5.820312 -12.203125 6.664062 -12.375 7.5625 -12.375 C 8.21875 -12.375 8.851562 -12.265625 9.46875 -12.046875 C 10.082031 -11.835938 10.625 -11.53125 11.09375 -11.125 C 11.570312 -10.726562 11.960938 -10.25 12.265625 -9.6875 C 12.578125 -9.125 12.765625 -8.507812 12.828125 -7.84375 C 12.828125 -7.726562 12.820312 -7.625 12.8125 -7.53125 C 12.800781 -7.4375 12.75 -7.390625 12.65625 -7.390625 L 4.453125 -7.390625 C 4.410156 -7.078125 4.382812 -6.8125 4.375 -6.59375 C 4.375 -6.375 4.375 -6.132812 4.375 -5.875 C 4.375 -5.09375 4.460938 -4.367188 4.640625 -3.703125 C 4.816406 -3.046875 5.0625 -2.476562 5.375 -2 C 5.695312 -1.519531 6.085938 -1.148438 6.546875 -0.890625 C 7.015625 -0.628906 7.539062 -0.5 8.125 -0.5 C 8.625 -0.5 9.066406 -0.5625 9.453125 -0.6875 C 9.847656 -0.820312 10.203125 -0.976562 10.515625 -1.15625 C 10.835938 -1.332031 11.109375 -1.53125 11.328125 -1.75 C 11.554688 -1.96875 11.753906 -2.160156 11.921875 -2.328125 Z M 9.1875 -8.0625 C 9.476562 -8.0625 9.625 -8.210938 9.625 -8.515625 C 9.625 -8.867188 9.59375 -9.234375 9.53125 -9.609375 C 9.46875 -9.992188 9.351562 -10.34375 9.1875 -10.65625 C 9.019531 -10.976562 8.800781 -11.242188 8.53125 -11.453125 C 8.257812 -11.660156 7.914062 -11.765625 7.5 -11.765625 C 6.976562 -11.765625 6.546875 -11.640625 6.203125 -11.390625 C 5.859375 -11.148438 5.570312 -10.847656 5.34375 -10.484375 C 5.125 -10.117188 4.953125 -9.722656 4.828125 -9.296875 C 4.703125 -8.867188 4.601562 -8.457031 4.53125 -8.0625 Z M 9.1875 -8.0625 "/></g></g></g><g fill="#000000" fill-opacity="1"><g transform="translate(158.578318, 330.020134)"><g/></g></g><g fill="#000000" fill-opacity="1"><g transform="translate(165.101427, 330.020134)"><g><path d="M 2.15625 -16.09375 C 2.15625 -16.445312 2.109375 -16.734375 2.015625 -16.953125 C 1.921875 -17.171875 1.789062 -17.332031 1.625 -17.4375 C 1.457031 -17.550781 1.257812 -17.625 1.03125 -17.65625 C 0.8125 -17.6875 0.5625 -17.703125 0.28125 -17.703125 L 0.28125 -18.203125 C 0.613281 -18.222656 1 -18.265625 1.4375 -18.328125 C 1.875 -18.390625 2.316406 -18.460938 2.765625 -18.546875 C 3.210938 -18.628906 3.644531 -18.722656 4.0625 -18.828125 C 4.488281 -18.929688 4.867188 -19.050781 5.203125 -19.1875 L 5.203125 -11 C 5.671875 -11.488281 6.1875 -11.835938 6.75 -12.046875 C 7.320312 -12.265625 7.910156 -12.375 8.515625 -12.375 C 9.242188 -12.375 9.96875 -12.242188 10.6875 -11.984375 C 11.40625 -11.722656 12.046875 -11.332031 12.609375 -10.8125 C 13.179688 -10.300781 13.644531 -9.664062 14 -8.90625 C 14.351562 -8.15625 14.53125 -7.273438 14.53125 -6.265625 C 14.53125 -5.148438 14.347656 -4.175781 13.984375 -3.34375 C 13.617188 -2.507812 13.140625 -1.820312 12.546875 -1.28125 C 11.960938 -0.738281 11.289062 -0.332031 10.53125 -0.0625 C 9.78125 0.207031 9.015625 0.34375 8.234375 0.34375 C 7.554688 0.34375 6.921875 0.195312 6.328125 -0.09375 C 5.742188 -0.382812 5.15625 -0.859375 4.5625 -1.515625 L 2.609375 0.171875 L 2.15625 0.171875 Z M 11.171875 -6.015625 C 11.171875 -6.628906 11.117188 -7.265625 11.015625 -7.921875 C 10.910156 -8.578125 10.738281 -9.179688 10.5 -9.734375 C 10.269531 -10.285156 9.957031 -10.734375 9.5625 -11.078125 C 9.175781 -11.421875 8.695312 -11.59375 8.125 -11.59375 C 7.613281 -11.59375 7.171875 -11.507812 6.796875 -11.34375 C 6.429688 -11.175781 6.128906 -10.945312 5.890625 -10.65625 C 5.660156 -10.363281 5.488281 -10.03125 5.375 -9.65625 C 5.257812 -9.28125 5.203125 -8.890625 5.203125 -8.484375 L 5.203125 -3.859375 C 5.203125 -3.171875 5.289062 -2.601562 5.46875 -2.15625 C 5.644531 -1.707031 5.875 -1.351562 6.15625 -1.09375 C 6.4375 -0.832031 6.738281 -0.648438 7.0625 -0.546875 C 7.394531 -0.441406 7.71875 -0.390625 8.03125 -0.390625 C 8.726562 -0.390625 9.28125 -0.582031 9.6875 -0.96875 C 10.09375 -1.351562 10.40625 -1.820312 10.625 -2.375 C 10.851562 -2.9375 11 -3.546875 11.0625 -4.203125 C 11.132812 -4.859375 11.171875 -5.460938 11.171875 -6.015625 Z M 11.171875 -6.015625 "/></g></g></g><g fill="#000000" fill-opacity="1"><g transform="translate(180.891275, 330.020134)"><g><path d="M 5.9375 -0.109375 L 2.046875 -9.15625 C 1.722656 -9.882812 1.40625 -10.476562 1.09375 -10.9375 C 0.789062 -11.394531 0.359375 -11.625 -0.203125 -11.625 L -0.203125 -12.125 C 0.210938 -12.125 0.5625 -12.117188 0.84375 -12.109375 C 1.132812 -12.097656 1.394531 -12.085938 1.625 -12.078125 C 1.863281 -12.066406 2.085938 -12.054688 2.296875 -12.046875 C 2.503906 -12.046875 2.71875 -12.046875 2.9375 -12.046875 C 3.175781 -12.046875 3.398438 -12.046875 3.609375 -12.046875 C 3.816406 -12.054688 4.039062 -12.066406 4.28125 -12.078125 C 4.519531 -12.085938 4.785156 -12.097656 5.078125 -12.109375 C 5.367188 -12.117188 5.710938 -12.125 6.109375 -12.125 L 6.109375 -11.625 C 5.765625 -11.625 5.445312 -11.570312 5.15625 -11.46875 C 4.875 -11.363281 4.734375 -11.078125 4.734375 -10.609375 C 4.734375 -10.515625 4.753906 -10.394531 4.796875 -10.25 C 4.847656 -10.113281 4.890625 -9.992188 4.921875 -9.890625 L 7.53125 -3.75 L 10.046875 -9.625 C 10.109375 -9.78125 10.160156 -9.941406 10.203125 -10.109375 C 10.253906 -10.273438 10.28125 -10.414062 10.28125 -10.53125 C 10.28125 -10.957031 10.15625 -11.238281 9.90625 -11.375 C 9.664062 -11.519531 9.34375 -11.601562 8.9375 -11.625 L 8.9375 -12.125 C 9.21875 -12.125 9.445312 -12.117188 9.625 -12.109375 C 9.800781 -12.097656 9.957031 -12.09375 10.09375 -12.09375 C 10.226562 -12.09375 10.363281 -12.085938 10.5 -12.078125 C 10.632812 -12.066406 10.773438 -12.0625 10.921875 -12.0625 C 11.222656 -12.0625 11.492188 -12.070312 11.734375 -12.09375 C 11.972656 -12.113281 12.347656 -12.125 12.859375 -12.125 L 12.859375 -11.625 C 12.347656 -11.601562 11.941406 -11.421875 11.640625 -11.078125 C 11.347656 -10.734375 11.0625 -10.234375 10.78125 -9.578125 L 4.5625 4.78125 C 4.445312 5.050781 4.316406 5.34375 4.171875 5.65625 C 4.023438 5.96875 3.851562 6.265625 3.65625 6.546875 C 3.457031 6.828125 3.234375 7.0625 2.984375 7.25 C 2.742188 7.4375 2.476562 7.53125 2.1875 7.53125 C 1.976562 7.53125 1.785156 7.457031 1.609375 7.3125 C 1.429688 7.175781 1.34375 6.976562 1.34375 6.71875 C 1.34375 6.507812 1.398438 6.332031 1.515625 6.1875 C 1.628906 6.050781 1.757812 5.9375 1.90625 5.84375 C 2.050781 5.757812 2.210938 5.679688 2.390625 5.609375 C 2.566406 5.546875 2.734375 5.492188 2.890625 5.453125 C 3.035156 5.421875 3.238281 5.257812 3.5 4.96875 C 3.757812 4.675781 4.019531 4.242188 4.28125 3.671875 Z M 5.9375 -0.109375 "/></g></g></g><g fill="#000000" fill-opacity="1"><g transform="translate(193.545544, 330.020134)"><g/></g></g><g fill="#000000" fill-opacity="1"><g transform="translate(200.068653, 330.020134)"><g><path d="M 1.125 -5.796875 C 1.125 -6.734375 1.300781 -7.601562 1.65625 -8.40625 C 2.007812 -9.21875 2.488281 -9.914062 3.09375 -10.5 C 3.695312 -11.09375 4.410156 -11.554688 5.234375 -11.890625 C 6.054688 -12.234375 6.941406 -12.40625 7.890625 -12.40625 C 8.140625 -12.40625 8.46875 -12.367188 8.875 -12.296875 C 9.28125 -12.234375 9.679688 -12.125 10.078125 -11.96875 C 10.472656 -11.8125 10.8125 -11.585938 11.09375 -11.296875 C 11.382812 -11.003906 11.53125 -10.632812 11.53125 -10.1875 C 11.53125 -9.894531 11.441406 -9.625 11.265625 -9.375 C 11.085938 -9.132812 10.796875 -9.015625 10.390625 -9.015625 C 10.109375 -9.015625 9.863281 -9.128906 9.65625 -9.359375 C 9.457031 -9.597656 9.359375 -9.90625 9.359375 -10.28125 C 9.359375 -10.425781 9.367188 -10.582031 9.390625 -10.75 C 9.421875 -10.914062 9.4375 -11.007812 9.4375 -11.03125 C 9.4375 -11.144531 9.382812 -11.25 9.28125 -11.34375 C 9.175781 -11.4375 9.050781 -11.507812 8.90625 -11.5625 C 8.757812 -11.613281 8.59375 -11.660156 8.40625 -11.703125 C 8.226562 -11.742188 8.054688 -11.765625 7.890625 -11.765625 C 7.242188 -11.765625 6.695312 -11.59375 6.25 -11.25 C 5.8125 -10.914062 5.457031 -10.476562 5.1875 -9.9375 C 4.914062 -9.394531 4.722656 -8.78125 4.609375 -8.09375 C 4.503906 -7.40625 4.453125 -6.703125 4.453125 -5.984375 C 4.453125 -4.234375 4.765625 -2.882812 5.390625 -1.9375 C 6.015625 -1 6.859375 -0.53125 7.921875 -0.53125 C 8.367188 -0.53125 8.785156 -0.582031 9.171875 -0.6875 C 9.554688 -0.789062 9.898438 -0.925781 10.203125 -1.09375 C 10.515625 -1.257812 10.78125 -1.441406 11 -1.640625 C 11.226562 -1.835938 11.425781 -2.03125 11.59375 -2.21875 L 11.90625 -1.9375 C 11.300781 -1.144531 10.566406 -0.566406 9.703125 -0.203125 C 8.847656 0.160156 8.003906 0.34375 7.171875 0.34375 C 6.347656 0.34375 5.570312 0.207031 4.84375 -0.0625 C 4.113281 -0.332031 3.472656 -0.726562 2.921875 -1.25 C 2.367188 -1.78125 1.929688 -2.421875 1.609375 -3.171875 C 1.285156 -3.929688 1.125 -4.804688 1.125 -5.796875 Z M 1.125 -5.796875 "/></g></g></g><g fill="#000000" fill-opacity="1"><g transform="translate(212.526953, 330.020134)"><g><path d="M 7.8125 -11.78125 C 7.226562 -11.78125 6.726562 -11.628906 6.3125 -11.328125 C 5.894531 -11.035156 5.550781 -10.628906 5.28125 -10.109375 C 5.007812 -9.585938 4.804688 -8.972656 4.671875 -8.265625 C 4.546875 -7.566406 4.484375 -6.828125 4.484375 -6.046875 C 4.484375 -5.265625 4.546875 -4.519531 4.671875 -3.8125 C 4.804688 -3.113281 5.007812 -2.503906 5.28125 -1.984375 C 5.550781 -1.460938 5.894531 -1.046875 6.3125 -0.734375 C 6.726562 -0.429688 7.226562 -0.28125 7.8125 -0.28125 C 8.375 -0.28125 8.851562 -0.429688 9.25 -0.734375 C 9.65625 -1.046875 9.992188 -1.460938 10.265625 -1.984375 C 10.535156 -2.503906 10.726562 -3.117188 10.84375 -3.828125 C 10.96875 -4.546875 11.03125 -5.296875 11.03125 -6.078125 C 11.03125 -6.859375 10.96875 -7.59375 10.84375 -8.28125 C 10.726562 -8.976562 10.535156 -9.585938 10.265625 -10.109375 C 9.992188 -10.628906 9.65625 -11.035156 9.25 -11.328125 C 8.851562 -11.628906 8.375 -11.78125 7.8125 -11.78125 Z M 14.390625 -6.078125 C 14.390625 -5.140625 14.222656 -4.28125 13.890625 -3.5 C 13.554688 -2.71875 13.085938 -2.039062 12.484375 -1.46875 C 11.890625 -0.894531 11.191406 -0.445312 10.390625 -0.125 C 9.585938 0.195312 8.726562 0.359375 7.8125 0.359375 C 6.875 0.359375 6 0.195312 5.1875 -0.125 C 4.375 -0.445312 3.671875 -0.894531 3.078125 -1.46875 C 2.484375 -2.039062 2.007812 -2.71875 1.65625 -3.5 C 1.300781 -4.28125 1.125 -5.128906 1.125 -6.046875 C 1.125 -7.015625 1.300781 -7.890625 1.65625 -8.671875 C 2.007812 -9.460938 2.488281 -10.132812 3.09375 -10.6875 C 3.695312 -11.25 4.40625 -11.679688 5.21875 -11.984375 C 6.03125 -12.285156 6.894531 -12.4375 7.8125 -12.4375 C 8.6875 -12.4375 9.519531 -12.285156 10.3125 -11.984375 C 11.113281 -11.679688 11.816406 -11.25 12.421875 -10.6875 C 13.023438 -10.132812 13.503906 -9.460938 13.859375 -8.671875 C 14.210938 -7.890625 14.390625 -7.023438 14.390625 -6.078125 Z M 14.390625 -6.078125 "/></g></g></g><g fill="#000000" fill-opacity="1"><g transform="translate(228.036832, 330.020134)"><g><path d="M 5.796875 -2.265625 C 5.796875 -1.859375 5.875 -1.535156 6.03125 -1.296875 C 6.1875 -1.066406 6.378906 -0.890625 6.609375 -0.765625 C 6.847656 -0.648438 7.113281 -0.578125 7.40625 -0.546875 C 7.695312 -0.515625 7.984375 -0.5 8.265625 -0.5 L 8.265625 0 C 7.660156 0 7.164062 -0.00390625 6.78125 -0.015625 C 6.40625 -0.0234375 6.082031 -0.0351562 5.8125 -0.046875 C 5.539062 -0.0546875 5.289062 -0.0625 5.0625 -0.0625 C 4.84375 -0.0703125 4.613281 -0.078125 4.375 -0.078125 C 4.101562 -0.078125 3.851562 -0.0703125 3.625 -0.0625 C 3.40625 -0.0625 3.164062 -0.0546875 2.90625 -0.046875 C 2.644531 -0.0351562 2.351562 -0.0234375 2.03125 -0.015625 C 1.71875 -0.00390625 1.335938 0 0.890625 0 L 0.890625 -0.5 C 1.171875 -0.5 1.421875 -0.515625 1.640625 -0.546875 C 1.867188 -0.578125 2.066406 -0.644531 2.234375 -0.75 C 2.398438 -0.863281 2.53125 -1.023438 2.625 -1.234375 C 2.71875 -1.441406 2.765625 -1.726562 2.765625 -2.09375 L 2.765625 -11.484375 L 0.953125 -11.484375 L 0.953125 -12.125 L 2.765625 -12.125 L 2.765625 -13.390625 C 2.765625 -13.648438 2.785156 -13.972656 2.828125 -14.359375 C 2.867188 -14.753906 2.945312 -15.164062 3.0625 -15.59375 C 3.1875 -16.019531 3.367188 -16.445312 3.609375 -16.875 C 3.847656 -17.3125 4.171875 -17.695312 4.578125 -18.03125 C 4.984375 -18.363281 5.476562 -18.640625 6.0625 -18.859375 C 6.644531 -19.078125 7.359375 -19.1875 8.203125 -19.1875 C 8.484375 -19.1875 8.835938 -19.15625 9.265625 -19.09375 C 9.691406 -19.039062 10.101562 -18.929688 10.5 -18.765625 C 10.90625 -18.609375 11.253906 -18.390625 11.546875 -18.109375 C 11.835938 -17.835938 11.984375 -17.476562 11.984375 -17.03125 C 11.984375 -16.78125 11.898438 -16.550781 11.734375 -16.34375 C 11.566406 -16.144531 11.320312 -16.046875 11 -16.046875 C 10.757812 -16.046875 10.539062 -16.113281 10.34375 -16.25 C 10.144531 -16.394531 10 -16.597656 9.90625 -16.859375 C 9.8125 -17.117188 9.769531 -17.320312 9.78125 -17.46875 C 9.789062 -17.625 9.785156 -17.71875 9.765625 -17.75 C 9.546875 -18.289062 9.023438 -18.5625 8.203125 -18.5625 C 7.640625 -18.5625 7.195312 -18.421875 6.875 -18.140625 C 6.550781 -17.859375 6.304688 -17.507812 6.140625 -17.09375 C 5.984375 -16.6875 5.882812 -16.253906 5.84375 -15.796875 C 5.8125 -15.347656 5.796875 -14.945312 5.796875 -14.59375 L 5.796875 -12.125 L 8.6875 -12.125 L 8.6875 -11.484375 L 5.796875 -11.484375 Z M 5.796875 -2.265625 "/></g></g></g><g fill="#000000" fill-opacity="1"><g transform="translate(237.835492, 330.020134)"><g><path d="M 0.84375 5.828125 L 16.75 -18.734375 L 18.109375 -18.734375 L 2.125 5.828125 Z M 0.84375 5.828125 "/></g></g></g><g fill="#000000" fill-opacity="1"><g transform="translate(257.628792, 330.020134)"><g><path d="M 6.046875 0.34375 C 4.660156 0.34375 3.640625 0.03125 2.984375 -0.59375 C 2.335938 -1.226562 2.015625 -2.101562 2.015625 -3.21875 L 2.015625 -11.421875 L 0.421875 -11.421875 L 0.421875 -11.984375 C 0.816406 -12.117188 1.210938 -12.300781 1.609375 -12.53125 C 2.015625 -12.757812 2.390625 -13.019531 2.734375 -13.3125 C 3.078125 -13.601562 3.390625 -13.925781 3.671875 -14.28125 C 3.953125 -14.632812 4.175781 -15.007812 4.34375 -15.40625 L 5.0625 -15.40625 L 5.0625 -12.125 L 7.984375 -12.125 L 7.984375 -11.421875 L 5.0625 -11.421875 L 5.0625 -4.140625 C 5.0625 -3.710938 5.070312 -3.285156 5.09375 -2.859375 C 5.113281 -2.441406 5.175781 -2.066406 5.28125 -1.734375 C 5.394531 -1.398438 5.578125 -1.128906 5.828125 -0.921875 C 6.085938 -0.710938 6.441406 -0.609375 6.890625 -0.609375 C 7.367188 -0.609375 7.742188 -0.71875 8.015625 -0.9375 C 8.285156 -1.15625 8.523438 -1.421875 8.734375 -1.734375 L 9.09375 -1.421875 C 8.875 -0.992188 8.507812 -0.59375 8 -0.21875 C 7.5 0.15625 6.847656 0.34375 6.046875 0.34375 Z M 6.046875 0.34375 "/></g></g></g><g fill="#000000" fill-opacity="1"><g transform="translate(266.727554, 330.020134)"><g><path d="M 12.234375 -2.046875 C 12.015625 -1.765625 11.75 -1.484375 11.4375 -1.203125 C 11.125 -0.921875 10.769531 -0.664062 10.375 -0.4375 C 9.988281 -0.21875 9.546875 -0.0351562 9.046875 0.109375 C 8.554688 0.265625 8.015625 0.34375 7.421875 0.34375 C 6.640625 0.34375 5.875 0.207031 5.125 -0.0625 C 4.375 -0.332031 3.703125 -0.726562 3.109375 -1.25 C 2.515625 -1.78125 2.035156 -2.429688 1.671875 -3.203125 C 1.304688 -3.984375 1.125 -4.867188 1.125 -5.859375 C 1.125 -6.753906 1.289062 -7.59375 1.625 -8.375 C 1.957031 -9.15625 2.410156 -9.84375 2.984375 -10.4375 C 3.566406 -11.039062 4.25 -11.515625 5.03125 -11.859375 C 5.820312 -12.203125 6.664062 -12.375 7.5625 -12.375 C 8.21875 -12.375 8.851562 -12.265625 9.46875 -12.046875 C 10.082031 -11.835938 10.625 -11.53125 11.09375 -11.125 C 11.570312 -10.726562 11.960938 -10.25 12.265625 -9.6875 C 12.578125 -9.125 12.765625 -8.507812 12.828125 -7.84375 C 12.828125 -7.726562 12.820312 -7.625 12.8125 -7.53125 C 12.800781 -7.4375 12.75 -7.390625 12.65625 -7.390625 L 4.453125 -7.390625 C 4.410156 -7.078125 4.382812 -6.8125 4.375 -6.59375 C 4.375 -6.375 4.375 -6.132812 4.375 -5.875 C 4.375 -5.09375 4.460938 -4.367188 4.640625 -3.703125 C 4.816406 -3.046875 5.0625 -2.476562 5.375 -2 C 5.695312 -1.519531 6.085938 -1.148438 6.546875 -0.890625 C 7.015625 -0.628906 7.539062 -0.5 8.125 -0.5 C 8.625 -0.5 9.066406 -0.5625 9.453125 -0.6875 C 9.847656 -0.820312 10.203125 -0.976562 10.515625 -1.15625 C 10.835938 -1.332031 11.109375 -1.53125 11.328125 -1.75 C 11.554688 -1.96875 11.753906 -2.160156 11.921875 -2.328125 Z M 9.1875 -8.0625 C 9.476562 -8.0625 9.625 -8.210938 9.625 -8.515625 C 9.625 -8.867188 9.59375 -9.234375 9.53125 -9.609375 C 9.46875 -9.992188 9.351562 -10.34375 9.1875 -10.65625 C 9.019531 -10.976562 8.800781 -11.242188 8.53125 -11.453125 C 8.257812 -11.660156 7.914062 -11.765625 7.5 -11.765625 C 6.976562 -11.765625 6.546875 -11.640625 6.203125 -11.390625 C 5.859375 -11.148438 5.570312 -10.847656 5.34375 -10.484375 C 5.125 -10.117188 4.953125 -9.722656 4.828125 -9.296875 C 4.703125 -8.867188 4.601562 -8.457031 4.53125 -8.0625 Z M 9.1875 -8.0625 "/></g></g></g><g fill="#000000" fill-opacity="1"><g transform="translate(280.585661, 330.020134)"><g><path d="M 6.109375 -11.78125 C 5.828125 -11.78125 5.53125 -11.757812 5.21875 -11.71875 C 4.914062 -11.6875 4.628906 -11.628906 4.359375 -11.546875 C 4.097656 -11.460938 3.882812 -11.363281 3.71875 -11.25 C 3.550781 -11.144531 3.46875 -11.015625 3.46875 -10.859375 C 3.46875 -10.828125 3.5 -10.707031 3.5625 -10.5 C 3.632812 -10.289062 3.671875 -10.054688 3.671875 -9.796875 C 3.671875 -9.484375 3.582031 -9.207031 3.40625 -8.96875 C 3.226562 -8.738281 2.960938 -8.625 2.609375 -8.625 C 2.285156 -8.625 2.007812 -8.738281 1.78125 -8.96875 C 1.5625 -9.207031 1.453125 -9.550781 1.453125 -10 C 1.453125 -10.5 1.628906 -10.90625 1.984375 -11.21875 C 2.335938 -11.539062 2.769531 -11.789062 3.28125 -11.96875 C 3.800781 -12.144531 4.347656 -12.265625 4.921875 -12.328125 C 5.503906 -12.398438 6.007812 -12.4375 6.4375 -12.4375 C 7.070312 -12.4375 7.695312 -12.375 8.3125 -12.25 C 8.925781 -12.125 9.46875 -11.910156 9.9375 -11.609375 C 10.40625 -11.316406 10.785156 -10.914062 11.078125 -10.40625 C 11.367188 -9.90625 11.515625 -9.273438 11.515625 -8.515625 L 11.515625 -2.375 C 11.515625 -2.226562 11.519531 -2.066406 11.53125 -1.890625 C 11.550781 -1.710938 11.585938 -1.539062 11.640625 -1.375 C 11.703125 -1.21875 11.789062 -1.085938 11.90625 -0.984375 C 12.03125 -0.890625 12.207031 -0.84375 12.4375 -0.84375 C 12.632812 -0.84375 12.796875 -0.914062 12.921875 -1.0625 C 13.046875 -1.207031 13.15625 -1.359375 13.25 -1.515625 L 13.609375 -1.3125 C 13.566406 -1.21875 13.488281 -1.082031 13.375 -0.90625 C 13.269531 -0.726562 13.117188 -0.550781 12.921875 -0.375 C 12.722656 -0.195312 12.472656 -0.0390625 12.171875 0.09375 C 11.878906 0.238281 11.535156 0.3125 11.140625 0.3125 C 10.429688 0.3125 9.875 0.164062 9.46875 -0.125 C 9.070312 -0.414062 8.769531 -0.84375 8.5625 -1.40625 C 7.914062 -0.863281 7.273438 -0.441406 6.640625 -0.140625 C 6.003906 0.160156 5.25 0.3125 4.375 0.3125 C 3.957031 0.3125 3.554688 0.253906 3.171875 0.140625 C 2.796875 0.0234375 2.457031 -0.144531 2.15625 -0.375 C 1.851562 -0.613281 1.613281 -0.910156 1.4375 -1.265625 C 1.257812 -1.617188 1.171875 -2.035156 1.171875 -2.515625 C 1.171875 -3.191406 1.378906 -3.769531 1.796875 -4.25 C 2.222656 -4.738281 2.734375 -5.15625 3.328125 -5.5 C 3.929688 -5.84375 4.554688 -6.132812 5.203125 -6.375 C 5.859375 -6.625 6.421875 -6.851562 6.890625 -7.0625 C 7.390625 -7.28125 7.773438 -7.460938 8.046875 -7.609375 C 8.316406 -7.765625 8.453125 -7.925781 8.453125 -8.09375 L 8.453125 -8.90625 C 8.453125 -9.125 8.4375 -9.394531 8.40625 -9.71875 C 8.382812 -10.050781 8.296875 -10.367188 8.140625 -10.671875 C 7.992188 -10.984375 7.757812 -11.242188 7.4375 -11.453125 C 7.125 -11.671875 6.679688 -11.78125 6.109375 -11.78125 Z M 8.453125 -7.0625 C 7.910156 -6.78125 7.382812 -6.53125 6.875 -6.3125 C 6.375 -6.09375 5.925781 -5.84375 5.53125 -5.5625 C 5.144531 -5.289062 4.832031 -4.953125 4.59375 -4.546875 C 4.351562 -4.148438 4.234375 -3.625 4.234375 -2.96875 C 4.234375 -2.726562 4.265625 -2.488281 4.328125 -2.25 C 4.390625 -2.019531 4.484375 -1.804688 4.609375 -1.609375 C 4.742188 -1.410156 4.910156 -1.25 5.109375 -1.125 C 5.304688 -1.007812 5.535156 -0.953125 5.796875 -0.953125 C 6.316406 -0.953125 6.804688 -1.070312 7.265625 -1.3125 C 7.722656 -1.5625 8.117188 -1.863281 8.453125 -2.21875 Z M 8.453125 -7.0625 "/></g></g></g></svg>